<svg xmlns="http://www.w3.org/2000/svg" width="56" height="56" viewBox="0 0 56 56">
	<style type="text/css">
		.st2{stroke:#000000;fill:none;stroke-width:2;}
		.st1{stroke-linecap:round;stroke-linejoin:round;}
		.st4{fill:#000000;stroke-linecap:round;}
		.st3{stroke:#000000;fill:none;stroke-width:2;stroke-linecap:round;}
		.st0{stroke:#000000;fill:none;stroke-width:2;stroke-linecap:round;stroke-linejoin:round;}
	</style>
	<path class="st0" d="M24.7,29.75L34.16,9.62L23.32,20.16L36.29,20.16L24.68,30.11"/>
	<path class="st2" d="M33.03,33.16C35.37,32.22 39.69,28.37 41.37,27.5C43.05,26.64 43.58,26.21 45.3,27.5C45.3,27.5 41.18,32.63 37.87,36.32C34.56,40.01 32.45,41.84 31.83,42.03C31.21,42.22 26.46,42.41 19.61,41.55C18.12,42.36 15.77,43.32 15.15,43.71C14.52,44.09 10.69,40.73 10.69,39.63C10.69,39.63 15.05,35.56 16.92,33.88C18.79,32.2 22.05,31.29 25.5,31.91C28.95,32.54 31.28,33.3 31.64,33.35C31.99,33.4 32.7,33.29 33.03,33.16Z"/>
	<path class="st3" d="M32.04,33.69C32,34.46 31.75,35.93 31.65,36.01C31.56,36.08 26.47,36.7 25.18,36.71"/>
	<path class="st4" d="M28,0C12.53,0 0,12.53 0,28C0,43.46 12.53,56 28,56C43.46,56 56,43.46 56,28C56,12.53 43.46,0 28,0M28,2C42.33,2 54,13.66 54,28C54,42.33 42.33,54 28,54C13.66,54 2,42.33 2,28C2,13.66 13.66,2 28,2"/>
</svg>