<svg xmlns="http://www.w3.org/2000/svg" width="56" height="56" viewBox="0 0 56 56">
	<style type="text/css">
		.st0{fill:#000000;}
	</style>
	<path class="st0" d="M28,0C12.53,0 0,12.53 0,28C0,43.46 12.53,56 28,56C43.46,56 56,43.46 56,28C56,12.53 43.46,0 28,0M28,2C42.33,2 54,13.66 54,28C54,42.33 42.33,54 28,54C13.66,54 2,42.33 2,28C2,13.66 13.66,2 28,2"/>
	<path class="st0" d="M15.14,30.82C14,30.82 13.07,29.89 13.07,28.75C13.07,27.61 14,26.68 15.14,26.68C15.16,26.68 15.18,26.68 15.2,26.68L15.2,26.68C15.47,27.94 15.86,29.2 16.32,30.44C16.32,30.44 16.32,30.44 16.32,30.44C15.99,30.68 15.58,30.82 15.14,30.82M40.79,26.68C40.81,26.68 40.83,26.68 40.85,26.68C41.99,26.68 42.92,27.61 42.92,28.75C42.92,29.89 41.99,30.82 40.85,30.82C40.41,30.82 40,30.68 39.67,30.44C39.67,30.44 39.67,30.44 39.67,30.44C40.13,29.2 40.52,27.94 40.79,26.68ZM14.73,22.97C14.73,22.88 14.73,22.78 14.73,22.69C14.73,22.78 14.73,22.88 14.73,22.97L14.73,22.97C14.74,23.65 14.8,24.35 14.89,25.04L14.89,25.04L14.89,25.05C14.89,25.05 14.89,25.05 14.89,25.04C12.95,25.17 11.41,26.77 11.41,28.75C11.41,30.81 13.07,32.48 15.14,32.48C15.8,32.48 16.41,32.29 16.95,31.99L16.95,31.98C16.95,31.98 16.95,31.99 16.95,31.99C17.58,33.45 18.3,34.88 19.07,36.26L19.07,36.26C19.07,36.26 19.08,36.26 19.08,36.27C19.07,36.26 19.07,36.26 19.07,36.26L19.07,36.26C17.77,38.59 16.2,40.67 15.14,41.97C13.03,39.39 8.92,33.77 8.92,29.16C8.92,25.87 11.49,23.18 14.73,22.97M41.26,22.97L41.26,22.97C41.26,22.88 41.26,22.78 41.26,22.69C41.26,22.78 41.26,22.88 41.26,22.97C44.5,23.18 47.07,25.87 47.07,29.16C47.07,33.77 42.96,39.39 40.85,41.97C39.79,40.67 38.22,38.59 36.92,36.26L36.92,36.26C36.92,36.26 36.91,36.26 36.91,36.27C36.91,36.26 36.91,36.26 36.92,36.26L36.92,36.26C37.69,34.88 38.41,33.45 39.04,31.99C39.04,31.99 39.04,31.98 39.04,31.98L39.04,31.99C39.58,32.29 40.19,32.48 40.85,32.48C42.92,32.48 44.58,30.81 44.58,28.75C44.58,26.77 43.04,25.17 41.1,25.04C41.1,25.05 41.1,25.05 41.1,25.05L41.1,25.04L41.1,25.04C41.19,24.35 41.25,23.65 41.26,22.97M27.99,46.06C24.79,42.29 16.39,31.53 16.39,22.69C16.39,16.29 21.59,11.08 27.99,11.08C34.4,11.08 39.6,16.29 39.6,22.69C39.6,31.52 31.19,42.29 27.99,46.06M27.99,9.42C21.13,9.42 15.49,14.63 14.8,21.31C10.6,21.49 7.26,24.93 7.26,29.16C7.26,36.07 15.14,44.52 15.14,44.52C15.14,44.52 17.81,41.66 20.04,37.9L20.04,37.9C23.72,43.99 27.99,48.57 27.99,48.57C27.99,48.57 32.27,43.99 35.95,37.9L35.95,37.9C38.18,41.66 40.85,44.52 40.85,44.52C40.85,44.52 48.73,36.07 48.73,29.16C48.73,24.93 45.39,21.49 41.19,21.31C40.5,14.63 34.86,9.42 27.99,9.42"/>
	<path class="st0" d="M28,15.7C24.53,15.7 21.71,18.52 21.71,21.99C21.71,25.46 24.53,28.28 28,28.28C31.46,28.28 34.28,25.46 34.28,21.99C34.28,18.52 31.46,15.7 28,15.7M28,17.7C30.36,17.7 32.28,19.62 32.28,21.99C32.28,24.35 30.36,26.28 28,26.28C25.63,26.28 23.71,24.35 23.71,21.99C23.71,19.62 25.63,17.7 28,17.7"/>
</svg>